name analog
datacolumns 19
datarows 58
range 0.332 0.3605
endheader
time	ground_force_vx	ground_force_vy	ground_force_vz	ground_force_px	ground_force_py	ground_force_pz	l_ground_force_vx	l_ground_force_vy	l_ground_force_vz	l_ground_force_px	l_ground_force_py	l_ground_force_pz	ground_torque_x	ground_torque_y	ground_torque_z	l_ground_torque_x	l_ground_torque_y	l_ground_torque_z
0.332	-0.0	-0.0	-0.0	-0.0	-0.0	-0.0	-1.9382175207138064	9.205496788024902	-797.7586059570312	-0.0	-0.0	-0.0	-0.0	-0.0	-0.0	279900.03125	-33008.94140625	-2753.30859375
0.3325	-0.0	-0.0	-0.0	-0.0	-0.0	-0.0	-2.29296350479126	8.51252555847168	-799.4242553710938	-0.0	-0.0	-0.0	-0.0	-0.0	-0.0	281046.71875	-33202.68359375	-2956.832763671875
0.333	-0.0	-0.0	-0.0	-0.0	-0.0	-0.0	-2.0471789836883545	9.34849739074707	-801.1148071289062	-0.0	-0.0	-0.0	-0.0	-0.0	-0.0	281224.96875	-33018.671875	-2876.4931640625
0.3335	-0.0	-0.0	-0.0	-0.0	-0.0	-0.0	-1.6786255836486816	9.708536148071287	-800.2013549804688	-0.0	-0.0	-0.0	-0.0	-0.0	-0.0	281397.375	-33110.421875	-2967.432373046875
0.334	-0.0	-0.0	-0.0	-0.0	-0.0	-0.0	-1.153240203857422	9.150908470153809	-801.652099609375	-0.0	-0.0	-0.0	-0.0	-0.0	-0.0	281596.3125	-33027.42578125	-2987.60205078125
0.3345	-0.0	-0.0	-0.0	-0.0	-0.0	-0.0	-1.234938621520996	9.111096382141112	-801.62451171875	-0.0	-0.0	-0.0	-0.0	-0.0	-0.0	281898.75	-33076.4140625	-2989.9423828125
0.335	-0.0	-0.0	-0.0	-0.0	-0.0	-0.0	-0.858864426612854	9.022871971130373	-801.1640014648438	-0.0	-0.0	-0.0	-0.0	-0.0	-0.0	281673.75	-32895.08203125	-2695.3857421875
0.3355	-0.0	-0.0	-0.0	-0.0	-0.0	-0.0	0.1845427453517913	8.758027076721191	-797.6304321289062	-0.0	-0.0	-0.0	-0.0	-0.0	-0.0	280957.0625	-32717.353515625	-2389.817138671875
0.336	-0.0	-0.0	-0.0	-0.0	-0.0	-0.0	0.0287745296955108	8.419208526611328	-796.358154296875	-0.0	-0.0	-0.0	-0.0	-0.0	-0.0	280541.6875	-32542.376953125	-2418.264892578125
0.3365	-0.0	-0.0	-0.0	-0.0	-0.0	-0.0	0.2371637225151062	8.199496269226074	-793.6785888671875	-0.0	-0.0	-0.0	-0.0	-0.0	-0.0	279065.875	-32182.47265625	-2172.91015625
0.337	-0.0	-0.0	-0.0	-0.0	-0.0	-0.0	-0.2222447395324707	6.829899787902832	-791.5267333984375	-0.0	-0.0	-0.0	-0.0	-0.0	-0.0	278563.28125	-31582.869140625	-2302.4345703125
0.3375	-0.0	-0.0	-0.0	-0.0	-0.0	-0.0	0.2587702870368957	6.337172031402588	-787.5107421875	-0.0	-0.0	-0.0	-0.0	-0.0	-0.0	277558.6875	-31310.181640625	-1965.880126953125
0.338	-0.0	-0.0	-0.0	-0.0	-0.0	-0.0	-0.0887107849121093	5.365452289581299	-787.0462036132812	-0.0	-0.0	-0.0	-0.0	-0.0	-0.0	276396.21875	-30825.396484375	-2008.4088134765625
0.3385	-0.0	-0.0	-0.0	-0.0	-0.0	-0.0	0.6797054409980774	4.5193305015563965	-784.9813232421875	-0.0	-0.0	-0.0	-0.0	-0.0	-0.0	275759.84375	-30826.998046875	-1558.4429931640625
0.339	-0.0	-0.0	-0.0	-0.0	-0.0	-0.0	1.0418990850448608	4.327762603759766	-782.8870239257812	-0.0	-0.0	-0.0	-0.0	-0.0	-0.0	275146.875	-30642.880859375	-1338.08642578125
0.3395	-0.0	-0.0	-0.0	-0.0	-0.0	-0.0	0.9606110453605652	3.871013164520264	-783.5560913085938	-0.0	-0.0	-0.0	-0.0	-0.0	-0.0	275282.0	-30530.94140625	-1165.4017333984375
0.34	-0.0	-0.0	-0.0	-0.0	-0.0	-0.0	0.5476171970367432	3.29847264289856	-782.569580078125	-0.0	-0.0	-0.0	-0.0	-0.0	-0.0	275312.75	-30379.603515625	-1355.6180419921875
0.3405	-0.0	-0.0	-0.0	-0.0	-0.0	-0.0	0.2893420457839966	3.636594295501709	-783.4048461914062	-0.0	-0.0	-0.0	-0.0	-0.0	-0.0	275016.21875	-30092.74609375	-1585.20654296875
0.341	-0.0	-0.0	-0.0	-0.0	-0.0	-0.0	-0.4357449114322662	3.6134142875671382	-783.8760986328125	-0.0	-0.0	-0.0	-0.0	-0.0	-0.0	275198.71875	-29963.32421875	-1614.3065185546875
0.3415	-0.0	-0.0	-0.0	-0.0	-0.0	-0.0	-0.4098360538482666	3.4601891040802	-783.1470947265625	-0.0	-0.0	-0.0	-0.0	-0.0	-0.0	274661.0625	-29898.78515625	-1857.7391357421875
0.342	-0.0	-0.0	-0.0	-0.0	-0.0	-0.0	-0.8950120806694031	3.2521631717681885	-781.4324951171875	-0.0	-0.0	-0.0	-0.0	-0.0	-0.0	275218.40625	-29825.25390625	-2011.678955078125
0.3425	-0.0	-0.0	-0.0	-0.0	-0.0	-0.0	-0.8950845003128052	3.0108790397644043	-783.178466796875	-0.0	-0.0	-0.0	-0.0	-0.0	-0.0	275130.125	-29677.228515625	-2127.6806640625
0.343	-0.0	-0.0	-0.0	-0.0	-0.0	-0.0	-1.370785355567932	2.601276397705078	-782.099609375	-0.0	-0.0	-0.0	-0.0	-0.0	-0.0	274761.4375	-29539.71875	-2106.4609375
0.3435	-0.0	-0.0	-0.0	-0.0	-0.0	-0.0	-2.112888813018799	2.159968376159668	-782.7979736328125	-0.0	-0.0	-0.0	-0.0	-0.0	-0.0	275230.59375	-29157.57421875	-2419.887451171875
0.34400000000000003	-0.0	-0.0	-0.0	-0.0	-0.0	-0.0	-2.387033700942993	2.095355272293091	-783.3076171875	-0.0	-0.0	-0.0	-0.0	-0.0	-0.0	275150.75	-29315.359375	-2468.736328125
0.34450000000000003	-0.0	-0.0	-0.0	-0.0	-0.0	-0.0	-2.4198076725006104	1.7827727794647217	-785.5588989257812	-0.0	-0.0	-0.0	-0.0	-0.0	-0.0	275859.25	-29411.451171875	-2541.400146484375
0.34500000000000003	-0.0	-0.0	-0.0	-0.0	-0.0	-0.0	-2.708644390106201	1.6781120300292969	-786.1265258789062	-0.0	-0.0	-0.0	-0.0	-0.0	-0.0	275619.625	-29163.416015625	-2547.071533203125
0.34550000000000003	-0.0	-0.0	-0.0	-0.0	-0.0	-0.0	-2.242783546447754	1.4214483499526978	-786.5072631835938	-0.0	-0.0	-0.0	-0.0	-0.0	-0.0	276222.0	-29115.763671875	-2293.7294921875
0.34600000000000003	-0.0	-0.0	-0.0	-0.0	-0.0	-0.0	-1.9684340953826904	1.4931070804595947	-787.0208740234375	-0.0	-0.0	-0.0	-0.0	-0.0	-0.0	276447.625	-29047.72265625	-2287.9599609375
0.34650000000000003	-0.0	-0.0	-0.0	-0.0	-0.0	-0.0	-2.5302584171295166	1.518336057662964	-788.6334838867188	-0.0	-0.0	-0.0	-0.0	-0.0	-0.0	276752.40625	-28862.306640625	-2339.207763671875
0.34700000000000003	-0.0	-0.0	-0.0	-0.0	-0.0	-0.0	-2.635807514190674	1.8293513059616089	-791.1441040039062	-0.0	-0.0	-0.0	-0.0	-0.0	-0.0	277701.875	-28767.939453125	-2404.197265625
0.34750000000000003	-0.0	-0.0	-0.0	-0.0	-0.0	-0.0	-2.9103243350982666	2.173929214477539	-794.4210815429688	-0.0	-0.0	-0.0	-0.0	-0.0	-0.0	278376.9375	-28806.953125	-2570.831787109375
0.34800000000000003	-0.0	-0.0	-0.0	-0.0	-0.0	-0.0	-2.830106735229492	2.86301326751709	-794.6690673828125	-0.0	-0.0	-0.0	-0.0	-0.0	-0.0	279567.65625	-28954.265625	-2329.523681640625
0.34850000000000003	-0.0	-0.0	-0.0	-0.0	-0.0	-0.0	-2.6960668563842773	3.295690059661865	-796.414794921875	-0.0	-0.0	-0.0	-0.0	-0.0	-0.0	280343.53125	-28724.958984375	-2501.572998046875
0.34900000000000003	-0.0	-0.0	-0.0	-0.0	-0.0	-0.0	-3.104877471923828	2.861173391342163	-800.4667358398438	-0.0	-0.0	-0.0	-0.0	-0.0	-0.0	281096.5	-28583.359375	-2591.0390625
0.34950000000000003	-0.0	-0.0	-0.0	-0.0	-0.0	-0.0	-3.468539237976074	3.1175990104675293	-802.0359497070312	-0.0	-0.0	-0.0	-0.0	-0.0	-0.0	282066.96875	-28666.98828125	-2683.23388671875
0.35000000000000003	-0.0	-0.0	-0.0	-0.0	-0.0	-0.0	-3.069364547729492	3.815487384796143	-803.5374145507812	-0.0	-0.0	-0.0	-0.0	-0.0	-0.0	283039.3125	-28603.802734375	-2712.50048828125
0.35050000000000003	-0.0	-0.0	-0.0	-0.0	-0.0	-0.0	-2.5285956859588623	4.66325044631958	-808.0072631835938	-0.0	-0.0	-0.0	-0.0	-0.0	-0.0	284124.53125	-28555.3203125	-2424.32421875
0.35100000000000003	-0.0	-0.0	-0.0	-0.0	-0.0	-0.0	-1.8988733291625977	5.405517578125	-811.635986328125	-0.0	-0.0	-0.0	-0.0	-0.0	-0.0	285406.375	-29205.859375	-2325.792724609375
0.35150000000000003	-0.0	-0.0	-0.0	-0.0	-0.0	-0.0	-1.3487558364868164	6.191525459289551	-814.0435180664062	-0.0	-0.0	-0.0	-0.0	-0.0	-0.0	286526.0625	-29477.478515625	-2191.50048828125
0.352	-0.0	-0.0	-0.0	-0.0	-0.0	-0.0	-0.8075165748596191	6.941095352172852	-817.95458984375	-0.0	-0.0	-0.0	-0.0	-0.0	-0.0	287782.21875	-29354.1328125	-2149.038818359375
0.3525	-0.0	-0.0	-0.0	-0.0	-0.0	-0.0	-0.789229691028595	7.154056549072266	-821.024169921875	-0.0	-0.0	-0.0	-0.0	-0.0	-0.0	289361.6875	-29352.466796875	-2309.4736328125
0.353	-0.0	-0.0	-0.0	-0.0	-0.0	-0.0	-1.055289626121521	7.367496967315674	-822.6739501953125	-0.0	-0.0	-0.0	-0.0	-0.0	-0.0	290664.1875	-29715.984375	-2318.853759765625
0.3535	-0.0	-0.0	-0.0	-0.0	-0.0	-0.0	-1.2233753204345703	8.00953197479248	-827.3796997070312	-0.0	-0.0	-0.0	-0.0	-0.0	-0.0	291472.28125	-29843.908203125	-2596.847900390625
0.354	-0.0	-0.0	-0.0	-0.0	-0.0	-0.0	-1.5174314975738523	7.930337429046631	-829.822998046875	-0.0	-0.0	-0.0	-0.0	-0.0	-0.0	292409.5625	-29850.21875	-2609.50048828125
0.3545	-0.0	-0.0	-0.0	-0.0	-0.0	-0.0	-2.119638204574585	7.791067123413086	-834.2869873046875	-0.0	-0.0	-0.0	-0.0	-0.0	-0.0	293292.6875	-29720.365234375	-2912.90478515625
0.355	-0.0	-0.0	-0.0	-0.0	-0.0	-0.0	-2.464964866638184	7.437875747680664	-835.9063110351562	-0.0	-0.0	-0.0	-0.0	-0.0	-0.0	294591.5625	-29546.06640625	-2986.43359375
0.3555	-0.0	-0.0	-0.0	-0.0	-0.0	-0.0	-3.225126981735229	7.06573486328125	-840.6070556640625	-0.0	-0.0	-0.0	-0.0	-0.0	-0.0	295098.65625	-29613.912109375	-3243.438232421875
0.356	-0.0	-0.0	-0.0	-0.0	-0.0	-0.0	-3.548431396484375	6.378279209136963	-839.634033203125	-0.0	-0.0	-0.0	-0.0	-0.0	-0.0	295546.34375	-29212.099609375	-3392.235595703125
0.3565	-0.0	-0.0	-0.0	-0.0	-0.0	-0.0	-4.713186740875244	6.280447006225586	-841.2201538085938	-0.0	-0.0	-0.0	-0.0	-0.0	-0.0	295927.4375	-29139.388671875	-3637.527099609375
0.357	-0.0	-0.0	-0.0	-0.0	-0.0	-0.0	-4.405159950256348	5.779626846313477	-842.8903198242188	-0.0	-0.0	-0.0	-0.0	-0.0	-0.0	296279.09375	-29051.060546875	-3709.669921875
0.3575	-0.0	-0.0	-0.0	-0.0	-0.0	-0.0	-4.6723246574401855	5.593484401702881	-844.869873046875	-0.0	-0.0	-0.0	-0.0	-0.0	-0.0	296612.9375	-29097.365234375	-3700.09375
0.358	-0.0	-0.0	-0.0	-0.0	-0.0	-0.0	-4.267948150634766	5.387622833251953	-847.352294921875	-0.0	-0.0	-0.0	-0.0	-0.0	-0.0	297286.4375	-29132.828125	-3495.448974609375
0.3585	-0.0	-0.0	-0.0	-0.0	-0.0	-0.0	-3.282299041748047	5.564266204833984	-848.9028930664062	-0.0	-0.0	-0.0	-0.0	-0.0	-0.0	297776.6875	-29368.552734375	-2901.5126953125
0.359	-0.0	-0.0	-0.0	-0.0	-0.0	-0.0	-2.336332082748413	4.681049346923828	-849.48583984375	-0.0	-0.0	-0.0	-0.0	-0.0	-0.0	298075.25	-29270.8203125	-2525.2431640625
0.3595	-0.0	-0.0	-0.0	-0.0	-0.0	-0.0	-1.5867831707000732	3.837700605392456	-851.4625854492188	-0.0	-0.0	-0.0	-0.0	-0.0	-0.0	298210.5625	-29371.35546875	-2280.937255859375
0.36	-0.0	-0.0	-0.0	-0.0	-0.0	-0.0	-0.8588974475860596	3.454584836959839	-851.7315063476562	-0.0	-0.0	-0.0	-0.0	-0.0	-0.0	297997.5625	-29460.65234375	-2020.2598876953125
0.3605	-0.0	-0.0	-0.0	-0.0	-0.0	-0.0	-0.8364502787590027	2.63956356048584	-853.1768188476562	-0.0	-0.0	-0.0	-0.0	-0.0	-0.0	298220.78125	-29633.658203125	-1631.4466552734375
